<svg version="1" xmlns="http://www.w3.org/2000/svg" width="3052" height="3052" viewBox="0 0 2289.000000 2289.000000"><path d="M1070 215.3c-.3.3-8.8.8-19 1.2-97.4 3.6-192.9 13.5-283.5 29.5-6.6 1.1-15.6 2.7-20 3.4-4.4.8-9.8 1.8-12 2.4-2.2.6-6.2 1.3-9 1.7-2.7.3-6.3 1-8 1.5-1.6.5-6.6 1.7-11 2.6-17.1 3.4-35.5 7.4-45 9.7-3.3.9-10 2.5-15 3.7-15.1 3.6-30.8 7.6-41 10.5-2.7.8-8.4 2.3-12.5 3.4-7.7 2-10.9 2.9-26.5 7.6-4.9 1.5-9.9 2.9-11 3.2-1.1.3-2.9.8-4 1.3-1.1.4-6 2-11 3.5-16.6 5-58 19.2-69.6 23.9-3.6 1.4-7 2.6-7.5 2.6s-2 .6-3.4 1.3c-1.4.7-5.4 2.3-9 3.6-3.6 1.3-7.8 2.9-9.5 3.6-1.6.8-5.9 2.5-9.5 4-3.6 1.4-7.4 3-8.5 3.5-1.1.5-9 3.9-17.5 7.5-23.8 10.3-61.4 28.4-79.5 38.3-3.8 2.1-10.6 5.8-15 8.2-9.1 4.8-28.5 16-30 17.2-.5.5-6.5 4.3-13.3 8.6-17.8 11.1-19.2 12-29.4 19.1-20.7 14.4-49.4 36.7-63.8 49.6-17.9 16.2-45 43.4-55.5 56-2.7 3.3-5.2 6.2-5.5 6.5-1.3 1.3-12.1 15.2-16.6 21.5-17.2 23.6-32.8 50.6-43.4 75-.5 1.1-1.8 4.1-2.9 6.7-1.2 2.6-2.1 5-2.1 5.3 0 .4-.7 2.1-1.4 3.8-1.8 3.8-7.7 21.7-10.1 30.2-4.5 16.1-8.9 40.9-10.7 60-4.5 47.8 3.9 112.4 20.2 155 .4 1.1 1.8 4.7 3 8 16.7 44.1 42.7 84.5 78 121 10 10.4 22.7 22.1 31.9 29.5 2.4 1.9 4.8 4 5.5 4.5 2.4 2.2 20.9 15.8 28.8 21.1 19.5 13.3 52.4 31.1 75.3 40.9 6.1 2.5 11.9 5 13 5.6 1.1.5 5.2 2 9 3.4 3.9 1.4 7.9 3 9 3.5 1.8.8 14.6 5.1 28.5 9.5 3 1 7.8 2.3 10.5 3 2.8.7 9.3 2.4 14.5 3.8 25.9 6.7 45 10.2 78 14.2 25.4 3.1 78.7 4.4 107.5 2.6 36.7-2.4 73.6-8.3 107.5-17.4 15.9-4.3 42.6-13 49.7-16.2 1.7-.8 3.4-1.5 3.8-1.5.3 0 2.7-.9 5.3-2.1 2.6-1.1 5.6-2.4 6.7-2.9 24.4-10.5 50.1-24.6 69.7-38.2 9.5-6.5 27.7-20.3 32.3-24.5 1.1-1 5.8-5.2 10.4-9.3 7.1-6.4 20.6-20.5 29.1-30.6 9.6-11.3 20.7-28.4 21.7-33.6.3-1.5 1-3.1 1.4-3.4.5-.3.9-4 .9-8.3 0-13-3.3-18-22.5-33.7-14.5-11.8-16.6-13.9-23.6-23-13.9-18-21.4-40.2-25.9-76.9-1.2-9.4-1.2-50.3 0-59 2.1-15.3 6.2-36.7 7.9-41.5.5-1.4 2.2-6.6 3.7-11.5 1.5-5 3.1-9.4 3.5-10 .5-.5.9-1.5.9-2.3 0-3.4 16.7-37 24.8-49.9 17-27 34.8-47.9 58.2-68.1 14.3-12.3 21.3-17.8 32-24.8 4.1-2.7 7.7-5.1 8-5.4 2.5-2.7 29.4-16.9 42.5-22.5 6.1-2.6 12.4-5.2 14-6 6.8-2.9 31.6-10.8 37.5-12 1.9-.3 4.6-1.1 6-1.6 7.1-2.7 40.7-7.6 61-9 16.9-1.2 44.4-.6 57.4 1.1 17.9 2.4 33.2 5.3 47.3 8.9 7.3 1.9 34.3 11.1 40.3 13.7 1.9.9 5.5 2.5 8 3.6 26.2 11.7 60.4 33.2 80 50.3 26.4 23.1 45 43.9 62.9 70.5 12.8 19.1 19.5 31.5 31 57.2 1.2 2.6 2.1 5.1 2.1 5.5.1.4.9 2.6 2 4.8 1.1 2.2 1.9 4.6 2 5.3 0 .7.4 2 .9 3 .6.9 2.2 5.7 3.6 10.7 1.5 4.9 3.1 10.1 3.6 11.5.9 2.6 3.1 11.9 5.5 23.5.7 3.8 2.1 12.4 2.9 19 .8 6.6 1.9 15.6 2.5 20.1 1.3 10.2 1.3 44.3 0 53.1-.5 3.8-1.6 12.4-2.4 19.3-2.3 19.3-5.6 35-11.6 55.5-1.7 6-3.6 11.4-4.1 11.9-.5.6-.9 1.6-.9 2.3 0 3.1-9.5 25.5-18 42.3-13.9 27.6-15.3 29.9-28.9 47-7 8.8-33.8 36.5-44.1 45.6-26.8 23.4-58.3 47.6-111.9 85.9-22.5 16.1-59 43.2-74.6 55.3-55.3 43.2-92 81-116.1 119.7-6.9 11.1-19.4 36.8-19.4 39.9 0 .6-.7 2.3-1.5 3.9-.7 1.5-2.6 7.1-4.1 12.5-1.4 5.3-3 10.6-3.5 11.7-1.9 4.7-5.1 25-5.9 37.4-2.1 31.5 3.1 57 16.3 79.4 11.2 18.8 26.1 33.3 46.7 45.3 7.3 4.3 11.9 6.5 23.5 11.4 2.6 1.1 13.5 4.5 20.5 6.4 27.1 7.5 68.6 7.5 84.7.1 1.7-.8 3.3-1.5 3.7-1.5 1.8 0 10.2-6.9 12.4-10.3 2.3-3.4 2.7-5.1 2.7-11.1 0-6.5-.3-7.7-3.8-13.4-5.9-9.6-7.7-15.7-7.7-26.2 0-16.3 6.5-29.7 21.9-45 15.2-15.1 37.9-28.8 66.1-40 3-1.2 6.6-2.6 8-3.2 5.9-2.4 31-10.3 45.5-14.3 2.8-.8 7.7-2.2 11-3.1 3.3-.9 8.3-2.2 11-2.9 4.8-1.2 17.2-4.7 28-7.9 2.8-.8 8.3-2.4 12.3-3.6 12.9-3.6 21.6-6.1 26.2-7.5 2.5-.8 7.9-2.4 12-3.6 4.1-1.1 10.1-2.9 13.3-4 3.1-1 6.4-1.9 7.2-1.9.8 0 2.3-.4 3.3-1 .9-.5 6-2.1 11.2-3.5 5.2-1.5 11.3-3.3 13.5-4 2.2-.8 7.4-2.3 11.5-3.5 4.1-1.2 8.4-2.5 9.5-3 1.1-.5 6.3-2 11.5-3.5 5.2-1.4 10.2-3 11-3.4.8-.4 4-1.4 7-2.1 3-.7 6-1.6 6.5-2 .6-.4 2.7-1.1 4.9-1.4 2.1-.4 4.6-1.1 5.5-1.6.9-.5 5.7-2.1 10.6-3.5 5-1.5 10.8-3.3 13-4 2.2-.8 9.4-3 16-5s13.8-4.3 16-5c2.2-.7 8.1-2.5 13-4 5-1.5 9.9-3.1 11-3.5 1.1-.5 6.1-2 11-3.5 5-1.5 9.9-3 11-3.5 1.1-.5 6.1-2 11-3.5 5-1.5 9.9-3 11-3.5 1.1-.4 6.1-2 11-3.5 5-1.5 9.9-3 11-3.5 1.1-.4 8.8-2.9 17-5.5 8.3-2.6 15.9-5.1 17-5.5 1.1-.5 7.2-2.4 13.5-4.4 14.7-4.6 50.3-16.2 88.3-28.8 27.5-9.1 39.3-13.5 55.2-20.7 3.3-1.6 8.9-4.1 12.5-5.7 5.7-2.5 37.1-18.2 42.5-21.2 4.4-2.4 36-20.9 41.4-24.2 21-12.8 52.4-36.4 79.1-59.5 6.3-5.5 33.6-32.9 40.2-40.5 30.3-34.6 51.7-66.2 70.4-104 9-18.2 10.5-21.8 18.8-43.3 3.4-8.8 9.3-26.5 10.1-30.7.4-1.9 1.1-4.1 1.6-5 .4-.8 1.9-6.5 3.3-12.5 1.5-6.1 3-12.4 3.6-14 .5-1.7 1.4-6.1 2-9.9.6-3.8 1.3-7.3 1.6-7.7.7-1.2 3.3-18.8 5.4-37.4 4.5-38.6 4.9-87.3.9-126.5-1-10.7-2.2-20.6-2.5-22-.4-1.4-1.2-5.7-1.9-9.5-2.3-12.7-4.6-23-5.4-24.5-.5-.9-1.2-3.1-1.6-5-1.4-6.9-6.3-21.8-11.9-36.5-9.1-24-25.8-55.6-41.4-78.4-24.6-36.1-59.5-74.2-94.2-103.1-2.9-2.5-6.7-5.7-8.4-7.1-9.4-8-34.9-26.7-51.1-37.6-18.7-12.6-24.5-16.1-47.6-29.5-18-10.5-69.2-36.8-83.5-43-2.1-.9-7.4-3.3-11.7-5.2-4.4-2-8.1-3.6-8.3-3.6-.5 0-5.7-2.2-11.9-5-1.1-.5-4.9-2.1-8.5-3.5-3.6-1.5-7.8-3.2-9.5-4-1.6-.7-4.2-1.7-5.8-2-1.5-.4-3-1.1-3.3-1.6-.3-.5-1.2-.9-2-.9s-3.4-.9-5.7-1.9c-2.4-1.1-5.6-2.3-7.2-2.7-1.7-.4-3.4-1-4-1.4-.5-.4-4.6-1.9-9-3.4s-8.9-3.1-10-3.6c-2.4-1.1-39.5-13.5-48.5-16.1-3.6-1.1-8.5-2.6-11-3.4-10.8-3.2-29.9-8.8-34.5-10-2.7-.7-8.6-2.3-13-3.5-14.3-3.9-29.2-7.8-43-11-4.4-1-10.9-2.6-14.5-3.5-8.2-1.9-23.3-5.2-32.5-7-3.8-.7-7.7-1.6-8.5-1.9-.9-.4-5.1-1.3-9.5-2.1s-11.6-2.1-16-2.9c-95.7-18.3-194.2-30-293.5-35-15.7-.8-34.3-1.8-41.5-2.1-15.5-.9-155.8-1.9-156.5-1.2zM1111 1706c-7.4.5-15.7 1.4-18.5 2-2.7.5-8.6 1.7-13 2.4-14.5 2.6-20 3.8-21 4.6-.5.4-2.6 1.1-4.5 1.4-3.9.8-13.7 4-18.7 6.2-1.7.8-3.4 1.4-3.8 1.4-.4 0-2.1.6-3.8 1.4-1.8.8-6.1 2.7-9.7 4.2-29.7 12.9-60.3 35.6-81.8 60.7-14.6 16.9-29.2 41.8-35.2 59.7-1.2 3.6-2.6 7.4-3 8.5-1.4 3.1-4.8 18.1-6.2 27-1.6 10.2-1.6 40.5 0 51 8.6 55.7 41.4 104 94.2 138.7 12.2 8 43.5 23.8 47.2 23.8.6 0 2.4.6 4.1 1.4 1.8.8 7.3 2.6 12.2 4.1 5 1.5 10.1 3 11.5 3.5 7.1 2.4 30.8 6.5 47 8 11.8 1.1 38.5 1.1 50.5-.1 17.1-1.6 36.9-5.1 48.5-8.4 11.1-3.2 19.5-5.9 21-6.6.8-.4 4.9-2 9-3.5 11-4.2 32.1-15 43.5-22.4 29.3-19 53.6-43.8 69.9-71.3 4.4-7.6 12.6-23.8 12.6-25.1 0-.4.6-2.2 1.4-3.9 7.6-17.3 12.2-46.1 11.2-70.2-1.2-28-6.5-49.1-18.2-72.9-22.2-44.8-60.8-80.2-112.9-103.6-7.4-3.3-9.5-4.2-21.5-8.2-33.8-11.6-72.4-16.3-112-13.8z"/></svg>